# xmcd CD database file
#
# Track frame offsets:
#	150
#	13766
#	26424
#	42457
#	58565
#	74619
#	89724
#	107724
#	121765
#	138447
#	153285
#	168164
#
# Disc length: 2485 seconds
#
# Revision: 0
# Processed by: cddbd v1.5.1PL0 Copyright (c) Steve Scherf et al.
# Submitted via: CDex 1.51
#
DISCID=9e09b30c
DTITLE=Sovereign - Wild One
DYEAR=1900
DGENRE=Country
TTITLE0=Tooraweenah Cowgirl
TTITLE1=Wonnongatta Track
TTITLE2=It's My Town
TTITLE3=The Wild One
TTITLE4=Company Man
TTITLE5=Long Hall
TTITLE6=Been Down This Road Before
TTITLE7=Ring Of Fire
TTITLE8=Twenty One Days
TTITLE9=Stomp
TTITLE10=Handful Of Dust
TTITLE11=Waiting On The Rain
EXTD=
EXTT0=
EXTT1=
EXTT2=
EXTT3=
EXTT4=
EXTT5=
EXTT6=
EXTT7=
EXTT8=
EXTT9=
EXTT10=
EXTT11=
PLAYORDER=
